{
    "asset" : {
        "generator" : "Khronos glTF Blender I/O v1.5.17",
        "version" : "2.0"
    },
    "scene" : 0,
    "scenes" : [
        {
            "name" : "Scene",
            "nodes" : [
                0
            ]
        }
    ],
    "nodes" : [
        {
            "mesh" : 0,
            "name" : "jackolantern_big"
        }
    ],
    "materials" : [
        {
            "name" : "Orange.005",
            "pbrMetallicRoughness" : {
                "baseColorFactor" : [
                    1,
                    0.16606298089027405,
                    0.017658168449997902,
                    1
                ],
                "metallicFactor" : 0,
                "roughnessFactor" : 0.20000000298023224
            }
        }
    ],
    "meshes" : [
        {
            "name" : "Sphere.016",
            "primitives" : [
                {
                    "attributes" : {
                        "POSITION" : 0,
                        "NORMAL" : 1,
                        "TEXCOORD_0" : 2
                    },
                    "indices" : 3,
                    "material" : 0
                }
            ]
        }
    ],
    "accessors" : [
        {
            "bufferView" : 0,
            "componentType" : 5126,
            "count" : 1235,
            "max" : [
                0.672070324420929,
                0.6356945037841797,
                0.6369482278823853
            ],
            "min" : [
                -0.6720979809761047,
                -0.4339589774608612,
                -0.6644388437271118
            ],
            "type" : "VEC3"
        },
        {
            "bufferView" : 1,
            "componentType" : 5126,
            "count" : 1235,
            "type" : "VEC3"
        },
        {
            "bufferView" : 2,
            "componentType" : 5126,
            "count" : 1235,
            "type" : "VEC2"
        },
        {
            "bufferView" : 3,
            "componentType" : 5123,
            "count" : 4152,
            "type" : "SCALAR"
        }
    ],
    "bufferViews" : [
        {
            "buffer" : 0,
            "byteLength" : 14820,
            "byteOffset" : 0
        },
        {
            "buffer" : 0,
            "byteLength" : 14820,
            "byteOffset" : 14820
        },
        {
            "buffer" : 0,
            "byteLength" : 9880,
            "byteOffset" : 29640
        },
        {
            "buffer" : 0,
            "byteLength" : 8304,
            "byteOffset" : 39520
        }
    ],
    "buffers" : [
        {
            "byteLength" : 47824,
            "uri" : "data:application/octet-stream;base64,"
        }
    ]
}
